<?xml version="1.0"?>
<svg xmlns:rdf="http://www.w3.org/1999/02/22-rdf-syntax-ns#" xmlns="http://www.w3.org/2000/svg" xmlns:cc="http://creativecommons.org/ns#" xmlns:dc="http://purl.org/dc/elements/1.1/" xmlns:svg="http://www.w3.org/2000/svg" id="svg6923" viewBox="0 0 750 225" version="1.1">
  <g id="layer1" transform="translate(-10.428 -239.97)">
    <g id="g6446" transform="matrix(.93750 0 0 .93889 662.86 639.19)">
      <path id="path5058" d="m224.29 424.68c0 20.809-16.869 37.679-37.679 37.679-20.809 0-37.679-16.869-37.679-37.679 0-20.809 16.869-37.679 37.679-37.679 20.809 0 37.679 16.869 37.679 37.679z" fill="#fff" transform="translate(-762.47 -730.15)"/>
      <path id="path5060" d="m-575.93-345.39c-22.091 0-40 17.909-40 40s17.909 40 40 40 40-17.909 40-40-17.909-40-40-40zm0 5.7063c18.941 0 34.294 15.353 34.294 34.294s-15.353 34.294-34.294 34.294-34.294-15.353-34.294-34.294 15.353-34.294 34.294-34.294z"/>
      <path id="path5062" d="m-565.88-277.98h-14.754v-41.786h-5.9088v-12.844h20.663v54.629"/>
    </g>
    <g id="g6451" transform="matrix(.93750 0 0 .93889 662.86 639.19)">
      <path id="path5066" d="m224.29 424.68c0 20.809-16.869 37.679-37.679 37.679-20.809 0-37.679-16.869-37.679-37.679 0-20.809 16.869-37.679 37.679-37.679 20.809 0 37.679 16.869 37.679 37.679z" fill="#fff" transform="translate(-682.47 -730.15)"/>
      <path id="path5068" d="m-495.93-345.39c-22.091 0-40 17.909-40 40s17.909 40 40 40 40-17.909 40-40-17.909-40-40-40zm0 5.7063c18.941 0 34.294 15.353 34.294 34.294s-15.353 34.294-34.294 34.294-34.294-15.353-34.294-34.294 15.353-34.294 34.294-34.294z"/>
      <path id="path5070" d="m-476.78-280.48h-37.611l14.931-19.92c1.6983-2.2644 3.1254-4.2812 4.2812-6.0503 1.1558-1.7926 2.0639-3.373 2.7244-4.7412 1.2973-2.571 1.946-5.2129 1.946-7.9255-0.00004-1.486-0.30667-2.6654-0.91993-3.5382-0.61331-0.87271-1.4507-1.3091-2.5121-1.3091-2.3588 0.00004-3.5382 2.2173-3.5382 6.6518-0.00002 0.23592-0.00002 0.51898 0 0.84916 0.0236 0.33027 0.0471 0.71947 0.0708 1.1676h-14.33l-0.0708-1.9814c-0.00001-5.4959 1.6983-10.001 5.095-13.516 3.4202-3.5381 7.7958-5.3072 13.127-5.3073 5.1421 0.00006 9.3408 1.6748 12.596 5.0242 3.2787 3.2788 4.918 7.5599 4.9181 12.844-0.00004 4.2458-1.1204 8.3737-3.3613 12.384-1.1322 2.005-2.6065 4.1161-4.4227 6.3333-1.7927 2.1937-3.9746 4.5053-6.5456 6.9348 2.2172-0.1651 4.4463-0.28304 6.6871-0.35381 2.2644-0.0708 4.576-0.10619 6.9348-0.10619v12.561"/>
    </g>
    <g id="g6456" transform="matrix(.93750 0 0 .93889 662.86 639.19)">
      <path id="path5074" d="m224.29 424.68c0 20.809-16.869 37.679-37.679 37.679-20.809 0-37.679-16.869-37.679-37.679 0-20.809 16.869-37.679 37.679-37.679 20.809 0 37.679 16.869 37.679 37.679z" fill="#fff" transform="translate(-602.47 -730.15)"/>
      <path id="path5076" d="m-415.93-345.39c-22.091 0-40 17.909-40 40s17.909 40 40 40 40-17.909 40-40-17.909-40-40-40zm0 5.7063c18.941 0 34.294 15.353 34.294 34.294s-15.353 34.294-34.294 34.294-34.294-15.353-34.294-34.294 15.353-34.294 34.294-34.294z"/>
      <path id="path5078" d="m-433.13-294.4h14.4c-0.00003 3.2787 1.203 4.9181 3.6089 4.9181 1.203 0.00002 2.1818-0.45995 2.9367-1.3799 0.75479-0.9435 1.1322-2.1701 1.1322-3.6797-0.00002-3.8448-2.005-5.7672-6.0149-5.7672-0.28308 0.00003-0.6369 0.0236-1.0615 0.0708-0.4246 0.0236-0.90814 0.059-1.4506 0.10619v-11.641c0.40097 0.0236 0.743 0.0472 1.0261 0.0708 0.30663 0.00003 0.5543 0.00003 0.74302 0 4.0335 0.00003 6.0502-1.8516 6.0503-5.5549-0.00003-3.0192-1.0497-4.5288-3.149-4.5289-1.6512 0.00005-2.5947 1.2148-2.8306 3.6443l-0.0708 0.74302h-14.259c0.40098-5.0949 2.1819-9.1166 5.3426-12.065 3.1372-2.9956 7.2532-4.4934 12.348-4.4935 4.8591 0.00006 8.8926 1.5333 12.101 4.5996 3.2787 3.0429 4.918 6.8051 4.9181 11.287-0.00003 5.0242-2.2055 8.8573-6.6164 11.499 4.8826 2.807 7.324 7.0292 7.324 12.667-0.00004 4.8827-1.7338 8.8572-5.2011 11.924-3.4203 3.0664-7.8666 4.5996-13.339 4.5996-5.3544 0-9.671-1.4978-12.95-4.4935-3.3259-2.9956-4.9888-6.8994-4.9888-11.711v-0.81378"/>
    </g>
    <g id="g6461" transform="matrix(.93750 0 0 .93889 662.86 639.19)">
      <path id="path5082" d="m224.29 424.68c0 20.809-16.869 37.679-37.679 37.679-20.809 0-37.679-16.869-37.679-37.679 0-20.809 16.869-37.679 37.679-37.679 20.809 0 37.679 16.869 37.679 37.679z" fill="#fff" transform="translate(-522.47 -730.15)"/>
      <path id="path5084" d="m-335.93-345.39c-22.091 0-40 17.909-40 40s17.909 40 40 40 40-17.909 40-40-17.909-40-40-40zm0 5.7063c18.941 0 34.294 15.353 34.294 34.294s-15.353 34.294-34.294 34.294-34.294-15.353-34.294-34.294 15.353-34.294 34.294-34.294z"/>
      <path id="path5086" d="m-321.91-278.7h-14.719v-11.074h-19.849v-11.534l16.488-32.02h18.08v31.808h4.6704v11.747h-4.6704v11.074m-14.047-22.821v-10.225c-0.00003-0.47172 0.0236-1.2265 0.0708-2.2644 0.0707-1.0378 0.16509-2.3705 0.28306-3.9981l-2.1937 4.6704c-1.0851 2.288-2.1701 4.4227-3.2551 6.4041-1.0851 1.9578-2.1701 3.7623-3.2551 5.4134h8.3501"/>
    </g>
    <g id="g6466" transform="matrix(.93750 0 0 .93889 662.86 639.19)">
      <path id="path5090" d="m224.29 424.68c0 20.809-16.869 37.679-37.679 37.679-20.809 0-37.679-16.869-37.679-37.679 0-20.809 16.869-37.679 37.679-37.679 20.809 0 37.679 16.869 37.679 37.679z" fill="#fff" transform="translate(-442.47 -730.15)"/>
      <path id="path5092" d="m-255.93-345.39c-22.091 0-40 17.909-40 40s17.909 40 40 40 40-17.909 40-40-17.909-40-40-40zm0 5.7063c18.941 0 34.294 15.353 34.294 34.294s-15.353 34.294-34.294 34.294-34.294-15.353-34.294-34.294 15.353-34.294 34.294-34.294z"/>
      <path id="path5094" d="m-272.4-279.49 1.7337-12.95c4.3637 2.5239 8.2675 3.7859 11.711 3.7858 2.2408 0.00001 4.0571-0.5661 5.4488-1.6983 1.4152-1.1322 2.1229-2.6064 2.1229-4.4227-0.00004-1.9342-0.76664-3.432-2.2998-4.4935-1.5332-1.085-3.6915-1.6275-6.4748-1.6276-3.0428 0.00002-6.239 0.63689-9.5884 1.9106l4.2458-31.844h27.173v12.844h-15.568l-1.1676 6.121c1.0143-0.0707 1.8398-0.10608 2.4767-0.10619 4.4816 0.00004 8.2675 1.6276 11.358 4.8827 3.0664 3.208 4.5996 7.2179 4.5996 12.03-0.00003 5.6611-1.9814 10.379-5.9441 14.153-3.9156 3.774-8.8572 5.6611-14.825 5.6611-5.095 0-10.096-1.4153-15.002-4.2458"/>
    </g>
    <g id="g6471" transform="matrix(.93750 0 0 .93889 662.86 639.19)">
      <path id="path5098" d="m224.29 424.68c0 20.809-16.869 37.679-37.679 37.679-20.809 0-37.679-16.869-37.679-37.679 0-20.809 16.869-37.679 37.679-37.679 20.809 0 37.679 16.869 37.679 37.679z" fill="#fff" transform="translate(-362.47 -730.15)"/>
      <path id="path5100" d="m-175.93-345.39c-22.091 0-40 17.909-40 40s17.909 40 40 40 40-17.909 40-40-17.909-40-40-40zm0 5.7063c18.941 0 34.294 15.353 34.294 34.294s-15.353 34.294-34.294 34.294-34.294-15.353-34.294-34.294 15.353-34.294 34.294-34.294z"/>
      <text id="text5102" style="text-anchor:middle;text-align:center" font-weight="bold" xml:space="preserve" font-size="76.007px" y="-275.99973" x="-176.71764" font-family="Futura" fill="#000000">
        <tspan id="tspan5104" y="-275.99973" x="-176.71764">6</tspan>
      </text>
    </g>
    <g id="g6477" transform="matrix(.93750 0 0 .93889 662.86 639.19)">
      <path id="path5213" d="m224.29 424.68c0 20.809-16.869 37.679-37.679 37.679-20.809 0-37.679-16.869-37.679-37.679 0-20.809 16.869-37.679 37.679-37.679 20.809 0 37.679 16.869 37.679 37.679z" fill="#fff" transform="translate(-282.47 -730.15)"/>
      <path id="path5215" d="m-95.926-345.39c-22.091 0-40 17.909-40 40s17.909 40 40 40 40-17.909 40-40-17.909-40-40-40zm0 5.7063c18.941 0 34.294 15.353 34.294 34.294s-15.353 34.294-34.294 34.294-34.294-15.353-34.294-34.294 15.353-34.294 34.294-34.294z"/>
      <text id="text5217" style="text-anchor:middle;text-align:center" font-weight="bold" xml:space="preserve" font-size="72.808px" y="-277.34048" x="-96.64653" font-family="Futura" fill="#000000">
        <tspan id="tspan5219" y="-277.34048" x="-96.64653">7</tspan>
      </text>
    </g>
    <g id="g6483" transform="matrix(.93750 0 0 .93889 662.86 639.19)">
      <path id="path5225" d="m224.29 424.68c0 20.809-16.869 37.679-37.679 37.679-20.809 0-37.679-16.869-37.679-37.679 0-20.809 16.869-37.679 37.679-37.679 20.809 0 37.679 16.869 37.679 37.679z" fill="#fff" transform="translate(-202.47 -730.15)"/>
      <path id="path5227" d="m-15.926-345.39c-22.091 0-40 17.909-40 40s17.909 40 40 40 40-17.909 40-40-17.909-40-40-40zm0 5.7063c18.941 0 34.294 15.353 34.294 34.294s-15.353 34.294-34.294 34.294-34.294-15.353-34.294-34.294 15.353-34.294 34.294-34.294z"/>
      <text id="text5229" style="text-anchor:middle;text-align:center" font-weight="bold" xml:space="preserve" font-size="76.007px" y="-275.99973" x="-15.824764" font-family="Futura" fill="#000000">
        <tspan id="tspan5231" y="-275.99973" x="-15.824763">8</tspan>
      </text>
    </g>
    <g id="g6494" transform="matrix(.93750 0 0 .93889 662.86 639.19)">
      <path id="path5233" d="m224.29 424.68c0 20.809-16.869 37.679-37.679 37.679-20.809 0-37.679-16.869-37.679-37.679 0-20.809 16.869-37.679 37.679-37.679 20.809 0 37.679 16.869 37.679 37.679z" fill="#fff" transform="translate(-122.47 -730.15)"/>
      <path id="path5235" d="m64.074-345.39c-22.091 0-40 17.909-40 40s17.909 40 40 40 40-17.909 40-40-17.909-40-40-40zm0 5.7063c18.941 0 34.294 15.353 34.294 34.294s-15.353 34.294-34.294 34.294-34.294-15.353-34.294-34.294 15.353-34.294 34.294-34.294z"/>
      <text id="text5237" style="text-anchor:middle;text-align:center" font-weight="bold" xml:space="preserve" font-size="76.007px" y="-276.17831" x="64.17524" font-family="Futura" fill="#000000">
        <tspan id="tspan5239" y="-276.17831" x="64.17524">9</tspan>
      </text>
    </g>
    <g id="g6440" transform="matrix(.93750 0 0 .93889 662.86 639.19)">
      <path id="path5241" d="m224.29 424.68c0 20.809-16.869 37.679-37.679 37.679-20.809 0-37.679-16.869-37.679-37.679 0-20.809 16.869-37.679 37.679-37.679 20.809 0 37.679 16.869 37.679 37.679z" fill="#fff" transform="translate(-842.47 -730.15)"/>
      <path id="path5244" d="m-655.93-345.39c-22.091 0-40 17.909-40 40s17.909 40 40 40 40-17.909 40-40-17.909-40-40-40zm0 5.7063c18.941 0 34.294 15.353 34.294 34.294s-15.353 34.294-34.294 34.294-34.294-15.353-34.294-34.294 15.353-34.294 34.294-34.294z"/>
      <text id="text5246" style="text-anchor:middle;text-align:center" font-weight="bold" xml:space="preserve" font-size="76.007px" y="-276.35687" x="-655.28906" font-family="Futura" fill="#000000">
        <tspan id="tspan5248" y="-276.35687" x="-655.28906">0</tspan>
      </text>
    </g>
    <g id="g6231" transform="matrix(.93750 0 0 .93889 662.86 639.21)">
      <path id="path4409" d="m224.29 424.68c0 20.809-16.869 37.679-37.679 37.679-20.809 0-37.679-16.869-37.679-37.679 0-20.809 16.869-37.679 37.679-37.679 20.809 0 37.679 16.869 37.679 37.679z" fill="#f5ceba" transform="translate(-762.47 -650.35)"/>
      <path id="path4402" d="m-575.93-265.59c-22.091 0-40 17.909-40 40s17.909 40 40 40 40-17.909 40-40-17.909-40-40-40zm0 5.7063c18.941 0 34.294 15.353 34.294 34.294s-15.353 34.294-34.294 34.294-34.294-15.353-34.294-34.294 15.353-34.294 34.294-34.294z"/>
      <path id="path4424" d="m-565.88-198.18h-14.754v-41.786h-5.9088v-12.844h20.663v54.629"/>
    </g>
    <g id="g6236" transform="matrix(.93750 0 0 .93889 662.86 639.21)">
      <path id="path4441" d="m224.29 424.68c0 20.809-16.869 37.679-37.679 37.679-20.809 0-37.679-16.869-37.679-37.679 0-20.809 16.869-37.679 37.679-37.679 20.809 0 37.679 16.869 37.679 37.679z" fill="#f5ddba" transform="translate(-682.47 -650.35)"/>
      <path id="path4443" d="m-495.93-265.59c-22.091 0-40 17.909-40 40s17.909 40 40 40 40-17.909 40-40-17.909-40-40-40zm0 5.7063c18.941 0 34.294 15.353 34.294 34.294s-15.353 34.294-34.294 34.294-34.294-15.353-34.294-34.294 15.353-34.294 34.294-34.294z"/>
      <path id="path4426" d="m-476.78-200.68h-37.611l14.931-19.92c1.6983-2.2644 3.1254-4.2812 4.2812-6.0503 1.1558-1.7926 2.0639-3.373 2.7244-4.7412 1.2973-2.571 1.946-5.2129 1.946-7.9255-0.00004-1.486-0.30667-2.6654-0.91993-3.5382-0.61331-0.87271-1.4507-1.3091-2.5121-1.3091-2.3588 0.00004-3.5382 2.2173-3.5382 6.6518-0.00002 0.23592-0.00002 0.51898 0 0.84916 0.0236 0.33027 0.0471 0.71947 0.0708 1.1676h-14.33l-0.0708-1.9814c-0.00001-5.4959 1.6983-10.001 5.095-13.516 3.4202-3.5381 7.7958-5.3072 13.127-5.3073 5.1421 0.00006 9.3408 1.6748 12.596 5.0242 3.2787 3.2788 4.918 7.5599 4.9181 12.844-0.00004 4.2458-1.1204 8.3737-3.3613 12.384-1.1322 2.005-2.6065 4.1161-4.4227 6.3333-1.7927 2.1937-3.9746 4.5053-6.5456 6.9348 2.2172-0.1651 4.4463-0.28304 6.6871-0.35381 2.2644-0.0708 4.576-0.10619 6.9348-0.10619v12.561"/>
    </g>
    <g id="g6241" transform="matrix(.93750 0 0 .93889 662.86 639.21)">
      <path id="path4445" d="m224.29 424.68c0 20.809-16.869 37.679-37.679 37.679-20.809 0-37.679-16.869-37.679-37.679 0-20.809 16.869-37.679 37.679-37.679 20.809 0 37.679 16.869 37.679 37.679z" fill="#f5f5ba" transform="translate(-602.47 -650.35)"/>
      <path id="path4447" d="m-415.93-265.59c-22.091 0-40 17.909-40 40s17.909 40 40 40 40-17.909 40-40-17.909-40-40-40zm0 5.7063c18.941 0 34.294 15.353 34.294 34.294s-15.353 34.294-34.294 34.294-34.294-15.353-34.294-34.294 15.353-34.294 34.294-34.294z"/>
      <path id="path4428" d="m-433.13-214.6h14.4c-0.00003 3.2787 1.203 4.9181 3.6089 4.9181 1.203 0.00002 2.1818-0.45995 2.9367-1.3799 0.75479-0.9435 1.1322-2.1701 1.1322-3.6797-0.00002-3.8448-2.005-5.7672-6.0149-5.7672-0.28308 0.00003-0.6369 0.0236-1.0615 0.0708-0.4246 0.0236-0.90814 0.059-1.4506 0.10619v-11.641c0.40097 0.0236 0.743 0.0472 1.0261 0.0708 0.30663 0.00003 0.5543 0.00003 0.74302 0 4.0335 0.00003 6.0502-1.8516 6.0503-5.5549-0.00003-3.0192-1.0497-4.5288-3.149-4.5289-1.6512 0.00005-2.5947 1.2148-2.8306 3.6443l-0.0708 0.74302h-14.259c0.40098-5.0949 2.1819-9.1166 5.3426-12.065 3.1372-2.9956 7.2532-4.4934 12.348-4.4935 4.8591 0.00006 8.8926 1.5333 12.101 4.5996 3.2787 3.0429 4.918 6.8051 4.9181 11.287-0.00003 5.0242-2.2055 8.8573-6.6164 11.499 4.8826 2.807 7.324 7.0292 7.324 12.667-0.00004 4.8827-1.7338 8.8572-5.2011 11.924-3.4203 3.0664-7.8666 4.5996-13.339 4.5996-5.3544 0-9.671-1.4978-12.95-4.4935-3.3259-2.9956-4.9888-6.8994-4.9888-11.711v-0.81378"/>
    </g>
    <g id="g6246" transform="matrix(.93750 0 0 .93889 662.86 639.21)">
      <path id="path4449" d="m224.29 424.68c0 20.809-16.869 37.679-37.679 37.679-20.809 0-37.679-16.869-37.679-37.679 0-20.809 16.869-37.679 37.679-37.679 20.809 0 37.679 16.869 37.679 37.679z" fill="#dff5ba" transform="translate(-522.47 -650.35)"/>
      <path id="path4451" d="m-335.93-265.59c-22.091 0-40 17.909-40 40s17.909 40 40 40 40-17.909 40-40-17.909-40-40-40zm0 5.7063c18.941 0 34.294 15.353 34.294 34.294s-15.353 34.294-34.294 34.294-34.294-15.353-34.294-34.294 15.353-34.294 34.294-34.294z"/>
      <path id="path4430" d="m-321.91-198.9h-14.719v-11.074h-19.849v-11.534l16.488-32.02h18.08v31.808h4.6704v11.747h-4.6704v11.074m-14.047-22.821v-10.225c-0.00003-0.47172 0.0236-1.2265 0.0708-2.2644 0.0707-1.0378 0.16509-2.3705 0.28306-3.9981l-2.1937 4.6704c-1.0851 2.288-2.1701 4.4227-3.2551 6.4041-1.0851 1.9578-2.1701 3.7623-3.2551 5.4134h8.3501"/>
    </g>
    <g id="g6251" transform="matrix(.93750 0 0 .93889 662.86 639.21)">
      <path id="path4453" d="m224.29 424.68c0 20.809-16.869 37.679-37.679 37.679-20.809 0-37.679-16.869-37.679-37.679 0-20.809 16.869-37.679 37.679-37.679 20.809 0 37.679 16.869 37.679 37.679z" fill="#c2f5ba" transform="translate(-442.47 -650.35)"/>
      <path id="path4455" d="m-255.93-265.59c-22.091 0-40 17.909-40 40s17.909 40 40 40 40-17.909 40-40-17.909-40-40-40zm0 5.7063c18.941 0 34.294 15.353 34.294 34.294s-15.353 34.294-34.294 34.294-34.294-15.353-34.294-34.294 15.353-34.294 34.294-34.294z"/>
      <path id="path4432" d="m-272.4-199.69 1.7337-12.95c4.3637 2.5239 8.2675 3.7859 11.711 3.7858 2.2408 0.00001 4.0571-0.5661 5.4488-1.6983 1.4152-1.1322 2.1229-2.6064 2.1229-4.4227-0.00004-1.9342-0.76664-3.432-2.2998-4.4935-1.5332-1.085-3.6915-1.6275-6.4748-1.6276-3.0428 0.00002-6.239 0.63689-9.5884 1.9106l4.2458-31.844h27.173v12.844h-15.568l-1.1676 6.121c1.0143-0.0707 1.8398-0.10608 2.4767-0.10619 4.4816 0.00004 8.2675 1.6276 11.358 4.8827 3.0664 3.208 4.5996 7.2179 4.5996 12.03-0.00003 5.6611-1.9814 10.379-5.9441 14.153-3.9156 3.774-8.8572 5.6611-14.825 5.6611-5.095 0-10.096-1.4153-15.002-4.2458"/>
    </g>
    <g id="g6256" transform="matrix(.93750 0 0 .93889 662.86 639.21)">
      <path id="path4457" d="m224.29 424.68c0 20.809-16.869 37.679-37.679 37.679-20.809 0-37.679-16.869-37.679-37.679 0-20.809 16.869-37.679 37.679-37.679 20.809 0 37.679 16.869 37.679 37.679z" fill="#baf5ce" transform="translate(-362.47 -650.35)"/>
      <path id="path4459" d="m-175.93-265.59c-22.091 0-40 17.909-40 40s17.909 40 40 40 40-17.909 40-40-17.909-40-40-40zm0 5.7063c18.941 0 34.294 15.353 34.294 34.294s-15.353 34.294-34.294 34.294-34.294-15.353-34.294-34.294 15.353-34.294 34.294-34.294z"/>
      <text id="text4461" style="text-anchor:middle;text-align:center" font-weight="bold" xml:space="preserve" font-size="76.007px" y="-196.19765" x="-176.71762" font-family="Futura" fill="#000000">
        <tspan id="tspan4463" y="-196.19765" x="-176.71762">6</tspan>
      </text>
    </g>
    <g id="g6225" transform="matrix(.93750 0 0 .93889 662.86 639.21)">
      <path id="path5276" d="m224.29 424.68c0 20.809-16.869 37.679-37.679 37.679-20.809 0-37.679-16.869-37.679-37.679 0-20.809 16.869-37.679 37.679-37.679 20.809 0 37.679 16.869 37.679 37.679z" fill="#f5baba" transform="translate(-842.47 -650.35)"/>
      <path id="path5278" d="m-655.93-265.59c-22.091 0-40 17.909-40 40s17.909 40 40 40 40-17.909 40-40-17.909-40-40-40zm0 5.7063c18.941 0 34.294 15.353 34.294 34.294s-15.353 34.294-34.294 34.294-34.294-15.353-34.294-34.294 15.353-34.294 34.294-34.294z"/>
      <text id="text5280" style="text-anchor:middle;text-align:center" font-weight="bold" xml:space="preserve" font-size="76.007px" y="-196.55482" x="-655.28906" font-family="Futura" fill="#000000">
        <tspan id="tspan5282" y="-196.55482" x="-655.28906">0</tspan>
      </text>
    </g>
    <g id="g6262" transform="matrix(.93750 0 0 .93889 662.86 639.21)">
      <path id="path5286" d="m224.29 424.68c0 20.809-16.869 37.679-37.679 37.679-20.809 0-37.679-16.869-37.679-37.679 0-20.809 16.869-37.679 37.679-37.679 20.809 0 37.679 16.869 37.679 37.679z" fill="#baf5f2" transform="translate(-282.47 -650.35)"/>
      <path id="path5288" d="m-95.926-265.59c-22.091 0-40 17.909-40 40s17.909 40 40 40 40-17.909 40-40-17.909-40-40-40zm0 5.7063c18.941 0 34.294 15.353 34.294 34.294s-15.353 34.294-34.294 34.294-34.294-15.353-34.294-34.294 15.353-34.294 34.294-34.294z"/>
      <text id="text5290" style="text-anchor:middle;text-align:center" font-weight="bold" xml:space="preserve" font-size="72.808px" y="-197.53845" x="-96.64653" font-family="Futura" fill="#000000">
        <tspan id="tspan5292" y="-197.53845" x="-96.64653">7</tspan>
      </text>
    </g>
    <g id="g6268" transform="matrix(.93750 0 0 .93889 662.86 639.21)">
      <path id="path5296" d="m224.29 424.68c0 20.809-16.869 37.679-37.679 37.679-20.809 0-37.679-16.869-37.679-37.679 0-20.809 16.869-37.679 37.679-37.679 20.809 0 37.679 16.869 37.679 37.679z" fill="#bad8f5" transform="translate(-202.47 -650.35)"/>
      <path id="path5298" d="m-15.926-265.59c-22.091 0-40 17.909-40 40s17.909 40 40 40 40-17.909 40-40-17.909-40-40-40zm0 5.7063c18.941 0 34.294 15.353 34.294 34.294s-15.353 34.294-34.294 34.294-34.294-15.353-34.294-34.294 15.353-34.294 34.294-34.294z"/>
      <text id="text5300" style="text-anchor:middle;text-align:center" font-weight="bold" xml:space="preserve" font-size="76.007px" y="-196.19768" x="-15.824763" font-family="Futura" fill="#000000">
        <tspan id="tspan5302" y="-196.19768" x="-15.824762">8</tspan>
      </text>
    </g>
    <g id="g6274" transform="matrix(.93750 0 0 .93889 662.86 639.21)">
      <path id="path5306" d="m224.29 424.68c0 20.809-16.869 37.679-37.679 37.679-20.809 0-37.679-16.869-37.679-37.679 0-20.809 16.869-37.679 37.679-37.679 20.809 0 37.679 16.869 37.679 37.679z" fill="#bfbaf5" transform="translate(-122.47 -650.35)"/>
      <path id="path5308" d="m64.074-265.59c-22.091 0-40 17.909-40 40s17.909 40 40 40 40-17.909 40-40-17.909-40-40-40zm0 5.7063c18.941 0 34.294 15.353 34.294 34.294s-15.353 34.294-34.294 34.294-34.294-15.353-34.294-34.294 15.353-34.294 34.294-34.294z"/>
      <text id="text5310" style="text-anchor:middle;text-align:center" font-weight="bold" xml:space="preserve" font-size="76.007px" y="-196.37625" x="64.17524" font-family="Futura" fill="#000000">
        <tspan id="tspan5312" y="-196.37625" x="64.17524">9</tspan>
      </text>
    </g>
    <g id="g6391" transform="matrix(.93750 0 0 .93889 662.86 639.21)">
      <path id="path6315" d="m224.29 424.68c0 20.809-16.869 37.679-37.679 37.679-20.809 0-37.679-16.869-37.679-37.679 0-20.809 16.869-37.679 37.679-37.679 20.809 0 37.679 16.869 37.679 37.679z" fill="#fff" transform="translate(-762.47 -809.99)"/>
      <path id="path6317" fill="#666" d="m-575.93-425.23c-22.091 0-40 17.909-40 40s17.909 40 40 40 40-17.909 40-40-17.909-40-40-40zm0 5.7063c18.941 0 34.294 15.353 34.294 34.294s-15.353 34.294-34.294 34.294-34.294-15.353-34.294-34.294 15.353-34.294 34.294-34.294z"/>
      <path id="path6319" fill="#666" d="m-565.88-357.82h-14.754v-41.786h-5.9088v-12.844h20.663v54.629"/>
    </g>
    <g id="g6396" transform="matrix(.93750 0 0 .93889 662.86 639.21)">
      <path id="path6321" d="m224.29 424.68c0 20.809-16.869 37.679-37.679 37.679-20.809 0-37.679-16.869-37.679-37.679 0-20.809 16.869-37.679 37.679-37.679 20.809 0 37.679 16.869 37.679 37.679z" fill="#fff" transform="translate(-682.47 -809.99)"/>
      <path id="path6323" fill="#666" d="m-495.93-425.23c-22.091 0-40 17.909-40 40s17.909 40 40 40 40-17.909 40-40-17.909-40-40-40zm0 5.7063c18.941 0 34.294 15.353 34.294 34.294s-15.353 34.294-34.294 34.294-34.294-15.353-34.294-34.294 15.353-34.294 34.294-34.294z"/>
      <path id="path6325" fill="#666" d="m-476.78-360.32h-37.611l14.931-19.92c1.6983-2.2644 3.1254-4.2812 4.2812-6.0503 1.1558-1.7926 2.0639-3.373 2.7244-4.7412 1.2973-2.571 1.946-5.2129 1.946-7.9255-0.00004-1.486-0.30667-2.6654-0.91993-3.5382-0.61331-0.87271-1.4507-1.3091-2.5121-1.3091-2.3588 0.00004-3.5382 2.2173-3.5382 6.6518-0.00002 0.23592-0.00002 0.51898 0 0.84916 0.0236 0.33027 0.0471 0.71947 0.0708 1.1676h-14.33l-0.0708-1.9814c-0.00001-5.4959 1.6983-10.001 5.095-13.516 3.4202-3.5381 7.7958-5.3072 13.127-5.3073 5.1421 0.00006 9.3408 1.6748 12.596 5.0242 3.2787 3.2788 4.918 7.5599 4.9181 12.844-0.00004 4.2458-1.1204 8.3737-3.3613 12.384-1.1322 2.005-2.6065 4.1161-4.4227 6.3333-1.7927 2.1937-3.9746 4.5053-6.5456 6.9348 2.2172-0.1651 4.4463-0.28304 6.6871-0.35381 2.2644-0.0708 4.576-0.10619 6.9348-0.10619v12.561"/>
    </g>
    <g id="g6401" transform="matrix(.93750 0 0 .93889 662.86 639.21)">
      <path id="path6327" d="m224.29 424.68c0 20.809-16.869 37.679-37.679 37.679-20.809 0-37.679-16.869-37.679-37.679 0-20.809 16.869-37.679 37.679-37.679 20.809 0 37.679 16.869 37.679 37.679z" fill="#fff" transform="translate(-602.47 -809.99)"/>
      <path id="path6329" fill="#666" d="m-415.93-425.23c-22.091 0-40 17.909-40 40s17.909 40 40 40 40-17.909 40-40-17.909-40-40-40zm0 5.7063c18.941 0 34.294 15.353 34.294 34.294s-15.353 34.294-34.294 34.294-34.294-15.353-34.294-34.294 15.353-34.294 34.294-34.294z"/>
      <path id="path6331" fill="#666" d="m-433.13-374.25h14.4c-0.00003 3.2787 1.203 4.9181 3.6089 4.9181 1.203 0.00002 2.1818-0.45995 2.9367-1.3799 0.75479-0.9435 1.1322-2.1701 1.1322-3.6797-0.00002-3.8448-2.005-5.7672-6.0149-5.7672-0.28308 0.00003-0.6369 0.0236-1.0615 0.0708-0.4246 0.0236-0.90814 0.059-1.4506 0.10619v-11.641c0.40097 0.0236 0.743 0.0472 1.0261 0.0708 0.30663 0.00003 0.5543 0.00003 0.74302 0 4.0335 0.00003 6.0502-1.8516 6.0503-5.5549-0.00003-3.0192-1.0497-4.5288-3.149-4.5289-1.6512 0.00005-2.5947 1.2148-2.8306 3.6443l-0.0708 0.74302h-14.259c0.40098-5.0949 2.1819-9.1166 5.3426-12.065 3.1372-2.9956 7.2532-4.4934 12.348-4.4935 4.8591 0.00006 8.8926 1.5333 12.101 4.5996 3.2787 3.0429 4.918 6.8051 4.9181 11.287-0.00003 5.0242-2.2055 8.8573-6.6164 11.499 4.8826 2.807 7.324 7.0292 7.324 12.667-0.00004 4.8827-1.7338 8.8572-5.2011 11.924-3.4203 3.0664-7.8666 4.5996-13.339 4.5996-5.3544 0-9.671-1.4978-12.95-4.4935-3.3259-2.9956-4.9888-6.8994-4.9888-11.711v-0.81378"/>
    </g>
    <g id="g6406" transform="matrix(.93750 0 0 .93889 662.86 639.21)">
      <path id="path6333" d="m224.29 424.68c0 20.809-16.869 37.679-37.679 37.679-20.809 0-37.679-16.869-37.679-37.679 0-20.809 16.869-37.679 37.679-37.679 20.809 0 37.679 16.869 37.679 37.679z" fill="#fff" transform="translate(-522.47 -809.99)"/>
      <path id="path6335" fill="#666" d="m-335.93-425.23c-22.091 0-40 17.909-40 40s17.909 40 40 40 40-17.909 40-40-17.909-40-40-40zm0 5.7063c18.941 0 34.294 15.353 34.294 34.294s-15.353 34.294-34.294 34.294-34.294-15.353-34.294-34.294 15.353-34.294 34.294-34.294z"/>
      <path id="path6337" fill="#666" d="m-321.91-358.54h-14.719v-11.074h-19.849v-11.534l16.488-32.02h18.08v31.808h4.6704v11.747h-4.6704v11.074m-14.047-22.821v-10.225c-0.00003-0.47172 0.0236-1.2265 0.0708-2.2644 0.0707-1.0378 0.16509-2.3705 0.28306-3.9981l-2.1937 4.6704c-1.0851 2.288-2.1701 4.4227-3.2551 6.4041-1.0851 1.9578-2.1701 3.7623-3.2551 5.4134h8.3501"/>
    </g>
    <g id="g6411" transform="matrix(.93750 0 0 .93889 662.86 639.21)">
      <path id="path6339" d="m224.29 424.68c0 20.809-16.869 37.679-37.679 37.679-20.809 0-37.679-16.869-37.679-37.679 0-20.809 16.869-37.679 37.679-37.679 20.809 0 37.679 16.869 37.679 37.679z" fill="#fff" transform="translate(-442.47 -809.99)"/>
      <path id="path6341" fill="#666" d="m-255.93-425.23c-22.091 0-40 17.909-40 40s17.909 40 40 40 40-17.909 40-40-17.909-40-40-40zm0 5.7063c18.941 0 34.294 15.353 34.294 34.294s-15.353 34.294-34.294 34.294-34.294-15.353-34.294-34.294 15.353-34.294 34.294-34.294z"/>
      <path id="path6343" fill="#666" d="m-272.4-359.33 1.7337-12.95c4.3637 2.5239 8.2675 3.7859 11.711 3.7858 2.2408 0.00001 4.0571-0.5661 5.4488-1.6983 1.4152-1.1322 2.1229-2.6064 2.1229-4.4227-0.00004-1.9342-0.76664-3.432-2.2998-4.4935-1.5332-1.085-3.6915-1.6275-6.4748-1.6276-3.0428 0.00002-6.239 0.63689-9.5884 1.9106l4.2458-31.844h27.173v12.844h-15.568l-1.1676 6.121c1.0143-0.0707 1.8398-0.10608 2.4767-0.10619 4.4816 0.00004 8.2675 1.6276 11.358 4.8827 3.0664 3.208 4.5996 7.2179 4.5996 12.03-0.00003 5.6611-1.9814 10.379-5.9441 14.153-3.9156 3.774-8.8572 5.6611-14.825 5.6611-5.095 0-10.096-1.4153-15.002-4.2458"/>
    </g>
    <g id="g6416" transform="matrix(.93750 0 0 .93889 662.86 639.21)">
      <path id="path6345" d="m224.29 424.68c0 20.809-16.869 37.679-37.679 37.679-20.809 0-37.679-16.869-37.679-37.679 0-20.809 16.869-37.679 37.679-37.679 20.809 0 37.679 16.869 37.679 37.679z" fill="#fff" transform="translate(-362.47 -809.99)"/>
      <path id="path6347" fill="#666" d="m-175.93-425.23c-22.091 0-40 17.909-40 40s17.909 40 40 40 40-17.909 40-40-17.909-40-40-40zm0 5.7063c18.941 0 34.294 15.353 34.294 34.294s-15.353 34.294-34.294 34.294-34.294-15.353-34.294-34.294 15.353-34.294 34.294-34.294z"/>
      <text id="text6349" style="text-anchor:middle;text-align:center" font-weight="bold" xml:space="preserve" font-size="76.007px" y="-355.84149" x="-176.71764" font-family="Futura" fill="#666666">
        <tspan id="tspan6351" y="-355.84149" x="-176.71764">6</tspan>
      </text>
    </g>
    <g id="g6422" transform="matrix(.93750 0 0 .93889 662.86 639.21)">
      <path id="path6353" d="m224.29 424.68c0 20.809-16.869 37.679-37.679 37.679-20.809 0-37.679-16.869-37.679-37.679 0-20.809 16.869-37.679 37.679-37.679 20.809 0 37.679 16.869 37.679 37.679z" fill="#fff" transform="translate(-282.47 -809.99)"/>
      <path id="path6355" fill="#666" d="m-95.926-425.23c-22.091 0-40 17.909-40 40s17.909 40 40 40 40-17.909 40-40-17.909-40-40-40zm0 5.7063c18.941 0 34.294 15.353 34.294 34.294s-15.353 34.294-34.294 34.294-34.294-15.353-34.294-34.294 15.353-34.294 34.294-34.294z"/>
      <text id="text6357" style="text-anchor:middle;text-align:center" font-weight="bold" xml:space="preserve" font-size="72.808px" y="-357.18225" x="-96.64653" font-family="Futura" fill="#666666">
        <tspan id="tspan6359" y="-357.18225" x="-96.64653">7</tspan>
      </text>
    </g>
    <g id="g6428" transform="matrix(.93750 0 0 .93889 662.86 639.21)">
      <path id="path6361" d="m224.29 424.68c0 20.809-16.869 37.679-37.679 37.679-20.809 0-37.679-16.869-37.679-37.679 0-20.809 16.869-37.679 37.679-37.679 20.809 0 37.679 16.869 37.679 37.679z" fill="#fff" transform="translate(-202.47 -809.99)"/>
      <path id="path6363" fill="#666" d="m-15.926-425.23c-22.091 0-40 17.909-40 40s17.909 40 40 40 40-17.909 40-40-17.909-40-40-40zm0 5.7063c18.941 0 34.294 15.353 34.294 34.294s-15.353 34.294-34.294 34.294-34.294-15.353-34.294-34.294 15.353-34.294 34.294-34.294z"/>
      <text id="text6365" style="text-anchor:middle;text-align:center" font-weight="bold" xml:space="preserve" font-size="76.007px" y="-355.84149" x="-15.824764" font-family="Futura" fill="#666666">
        <tspan id="tspan6367" y="-355.84149" x="-15.824763">8</tspan>
      </text>
    </g>
    <g id="g6434" transform="matrix(.93750 0 0 .93889 662.86 639.21)">
      <path id="path6369" d="m224.29 424.68c0 20.809-16.869 37.679-37.679 37.679-20.809 0-37.679-16.869-37.679-37.679 0-20.809 16.869-37.679 37.679-37.679 20.809 0 37.679 16.869 37.679 37.679z" fill="#fff" transform="translate(-122.47 -809.99)"/>
      <path id="path6371" fill="#666" d="m64.074-425.23c-22.091 0-40 17.909-40 40s17.909 40 40 40 40-17.909 40-40-17.909-40-40-40zm0 5.7063c18.941 0 34.294 15.353 34.294 34.294s-15.353 34.294-34.294 34.294-34.294-15.353-34.294-34.294 15.353-34.294 34.294-34.294z"/>
      <text id="text6373" style="text-anchor:middle;text-align:center" font-weight="bold" xml:space="preserve" font-size="76.007px" y="-356.02008" x="64.17524" font-family="Futura" fill="#666666">
        <tspan id="tspan6375" y="-356.02008" x="64.17524">9</tspan>
      </text>
    </g>
    <g id="g6385" transform="matrix(.93750 0 0 .93889 662.86 639.21)">
      <path id="path6377" d="m224.29 424.68c0 20.809-16.869 37.679-37.679 37.679-20.809 0-37.679-16.869-37.679-37.679 0-20.809 16.869-37.679 37.679-37.679 20.809 0 37.679 16.869 37.679 37.679z" fill="#fff" transform="translate(-842.47 -809.99)"/>
      <path id="path6379" fill="#666" d="m-655.93-425.23c-22.091 0-40 17.909-40 40s17.909 40 40 40 40-17.909 40-40-17.909-40-40-40zm0 5.7063c18.941 0 34.294 15.353 34.294 34.294s-15.353 34.294-34.294 34.294-34.294-15.353-34.294-34.294 15.353-34.294 34.294-34.294z"/>
      <text id="text6381" style="text-anchor:middle;text-align:center" font-weight="bold" xml:space="preserve" font-size="76.007px" y="-356.19864" x="-655.28906" font-family="Futura" fill="#666666">
        <tspan id="tspan6383" y="-356.19864" x="-655.28906">0</tspan>
      </text>
    </g>
  </g>
  <metadata>
    <rdf:RDF>
      <cc:Work>
        <dc:format>image/svg+xml</dc:format>
        <dc:type rdf:resource="http://purl.org/dc/dcmitype/StillImage"/>
        <cc:license rdf:resource="http://creativecommons.org/licenses/publicdomain/"/>
        <dc:publisher>
          <cc:Agent rdf:about="http://openclipart.org/">
            <dc:title>Openclipart</dc:title>
          </cc:Agent>
        </dc:publisher>
        <dc:title>Number icons for CSS slicing</dc:title>
        <dc:date>2011-06-08T15:54:34</dc:date>
        <dc:description>Eye-pleasing set of numbers.  Google "css slicing" to see an ideal use for this sort of thing.</dc:description>
        <dc:source>http://openclipart.org/detail/143635/number-icons-for-css-slicing-by-darth_schmoo</dc:source>
        <dc:creator>
          <cc:Agent>
            <dc:title>darth_schmoo</dc:title>
          </cc:Agent>
        </dc:creator>
        <dc:subject>
          <rdf:Bag>
            <rdf:li>clip art</rdf:li>
            <rdf:li>clipart</rdf:li>
            <rdf:li>css slice</rdf:li>
            <rdf:li>numbers</rdf:li>
            <rdf:li>web</rdf:li>
            <rdf:li>web design</rdf:li>
          </rdf:Bag>
        </dc:subject>
      </cc:Work>
      <cc:License rdf:about="http://creativecommons.org/licenses/publicdomain/">
        <cc:permits rdf:resource="http://creativecommons.org/ns#Reproduction"/>
        <cc:permits rdf:resource="http://creativecommons.org/ns#Distribution"/>
        <cc:permits rdf:resource="http://creativecommons.org/ns#DerivativeWorks"/>
      </cc:License>
    </rdf:RDF>
  </metadata>
</svg>
